<?xml version="1.0" standalone="no"?>
<!DOCTYPE svg PUBLIC "-//W3C//DTD SVG 20010904//EN"
 "http://www.w3.org/TR/2001/REC-SVG-20010904/DTD/svg10.dtd">
<svg version="1.0" xmlns="http://www.w3.org/2000/svg"
 width="768.000000pt" height="768.000000pt" viewBox="0 0 768.000000 768.000000"
 preserveAspectRatio="xMidYMid meet">
<metadata>
Created by potrace 1.14, written by Peter Selinger 2001-2017
</metadata>
<g transform="translate(0.000000,768.000000) scale(0.100000,-0.100000)"
fill="#000000" stroke="none">
<path d="M4598 7375 c-2 -2 -16 -5 -33 -8 -44 -7 -78 -22 -97 -43 -34 -39
-133 -276 -168 -406 -21 -76 -27 -86 -44 -82 -12 2 -65 6 -118 9 -120 7 -146
16 -338 120 -231 124 -377 188 -595 260 -129 43 -197 63 -245 72 -14 2 -45 9
-70 14 -25 6 -63 13 -85 15 -22 3 -46 7 -53 9 -64 23 -542 23 -581 1 -3 -2
-30 -7 -60 -10 -29 -4 -57 -8 -61 -11 -3 -2 -17 -6 -31 -8 -117 -22 -288 -85
-444 -164 -60 -30 -112 -58 -115 -62 -3 -3 -18 -15 -35 -25 -94 -60 -409 -348
-510 -466 -140 -165 -323 -448 -442 -684 -72 -143 -357 -816 -349 -824 2 -2
21 16 42 39 44 47 183 141 354 237 152 86 232 131 250 142 27 17 254 118 310
137 139 49 420 158 461 179 26 13 134 52 240 88 1018 339 1279 442 1824 719
77 39 262 113 370 148 63 20 75 21 130 10 33 -7 81 -19 107 -27 l46 -15 -1
-87 c-1 -87 2 -125 23 -260 7 -41 10 -75 8 -77 -1 -2 -27 -6 -57 -9 -29 -3
-79 -10 -110 -15 -31 -6 -92 -13 -136 -16 -207 -15 -209 -16 -379 -74 -165
-57 -210 -75 -331 -131 -49 -23 -124 -55 -165 -72 -41 -18 -93 -43 -114 -57
-21 -14 -46 -30 -55 -36 -9 -5 -18 -12 -21 -15 -3 -3 -27 -17 -55 -30 -27 -14
-54 -28 -60 -33 -5 -4 -39 -26 -75 -50 -36 -23 -67 -44 -70 -48 -3 -3 -43 -36
-90 -75 -139 -113 -152 -125 -250 -219 -178 -171 -273 -291 -454 -572 -25 -40
-46 -75 -46 -78 0 -4 -8 -19 -18 -33 -65 -94 -169 -322 -227 -497 -39 -117
-111 -391 -121 -455 -2 -14 -6 -36 -8 -50 -3 -13 -8 -40 -11 -60 -4 -34 -7
-60 -21 -202 -8 -90 -8 -370 0 -483 13 -165 37 -315 77 -476 68 -276 225 -646
388 -918 31 -51 61 -102 67 -112 6 -10 18 -27 27 -37 10 -10 17 -23 17 -29 0
-6 3 -13 8 -15 4 -2 20 -21 37 -43 343 -460 863 -839 1420 -1034 210 -74 494
-138 695 -157 36 -3 76 -8 90 -10 31 -5 412 -5 460 0 19 2 69 7 110 11 41 4
84 9 95 11 11 1 40 6 65 9 25 3 52 8 60 10 8 2 30 7 48 10 28 5 106 23 177 41
11 3 30 7 43 10 12 2 70 20 130 40 315 103 592 245 869 446 67 48 128 95 136
102 8 8 36 33 63 56 188 161 362 361 514 590 34 52 71 107 81 122 11 15 19 30
19 33 0 3 11 22 23 43 56 88 177 339 224 462 48 129 117 360 129 438 3 20 7
39 9 42 2 3 6 26 10 50 3 25 11 74 16 110 19 125 24 207 23 435 0 252 -6 340
-36 490 -28 147 -27 142 -54 250 -13 55 -26 109 -29 120 -6 32 -42 146 -60
195 -9 25 -18 50 -19 55 -4 13 -10 29 -68 165 -41 96 -110 232 -178 349 -30
53 -135 198 -184 256 -188 222 -377 397 -606 562 -47 34 -96 72 -110 85 -165
154 -510 324 -905 446 -254 78 -345 92 -628 95 -119 2 -219 5 -221 8 -3 3 -8
23 -11 45 -3 21 -7 48 -10 59 -5 24 -17 129 -19 170 -4 70 30 213 75 312 10
24 19 46 19 49 0 4 43 92 95 196 90 178 105 217 88 219 -31 4 -82 7 -85 4z"/>
</g>
</svg>
